<?xml version="1.0" encoding="UTF-8" standalone="no"?>
<svg
   xmlns:rdf="http://www.w3.org/1999/02/22-rdf-syntax-ns#"
   xmlns:svg="http://www.w3.org/2000/svg"
   xmlns="http://www.w3.org/2000/svg"
   height="50"
   width="50"
   version="1.1"
   id="svg2"
   enable-background="new 0 0 50 50">
  <defs
     id="defs8" />
  <g
     transform="translate(-168.25122,-380.71505)"
     id="g4366">
    <g
       transform="matrix(0.11408481,0,0,0.11408481,164.59217,376.61648)"
       id="g4404">
      <g
         id="g4397">
        <circle
           r="202.19498"
           cy="252.77301"
           cx="248.54907"
           id="path3551"
           style="fill:none;fill-rule:evenodd;stroke:#000000;stroke-width:8;stroke-linecap:butt;stroke-linejoin:miter;stroke-miterlimit:4;stroke-dasharray:none;stroke-opacity:1" />
        <path
           id="text4353"
           d="m 75.134013,174.27943 c 19.34391,0 38.687817,0 58.031727,0 0.63604,5.24129 0.51982,9.73032 -6.00468,7.81108 -6.11584,0 -12.23167,0 -18.34751,0 0,20.26286 0,40.52572 0,60.78858 -4.09787,-0.51241 -11.476705,2.25613 -9.327346,-4.50351 0,-18.76169 0,-37.52338 0,-56.28507 -8.117397,0 -16.234794,0 -24.352191,0 0,-2.6037 0,-5.20739 0,-7.81108 z m 106.155327,36.43639 c 10.44197,5.68988 13.14669,18.52401 18.90059,28.17175 5.13209,6.08889 -3.86462,3.46481 -7.75207,3.99152 -5.3918,-8.52472 -8.12711,-19.47523 -15.60543,-26.74146 -5.09756,-2.76403 -14.1981,-3.02129 -18.79253,-1.50085 0,9.41411 0,18.82821 0,28.24231 -4.08841,-0.50656 -11.43945,2.24951 -9.28141,-4.50351 0,-21.36539 0,-42.73077 0,-64.09615 12.33009,0.746 25.62881,-2.28961 36.96336,3.76411 11.14102,7.40496 9.8341,29.48649 -4.43251,32.67228 z m -23.24944,-28.8091 c 0,8.11739 0,16.23479 0,24.35219 8.3697,-0.58245 20.06342,2.61922 24.36367,-6.92659 5.38708,-12.78351 -8.09939,-19.45511 -18.69769,-17.4256 -1.88866,0 -3.77732,0 -5.66598,0 z m 61.67813,-7.62729 c 4.09787,0.51241 11.47671,-2.25614 9.32735,4.50351 0.40583,15.54582 -0.9576,31.22973 0.99936,46.65906 2.55141,15.27312 29.31561,15.27957 31.86461,0 1.97915,-16.92925 0.57885,-34.11641 0.99936,-51.16257 4.09787,0.51241 11.4767,-2.25614 9.32734,4.50351 -0.42836,15.80949 0.97058,31.75341 -0.93689,47.45812 -3.17111,18.43556 -27.23011,22.09844 -41.23719,14.11953 -13.39522,-8.79666 -9.82036,-26.08504 -10.34394,-39.77094 0,-8.77008 0,-17.54015 0,-26.31022 z M 93.926553,294.80899 c 0,8.37777 0,16.75553 0,25.1333 9.226357,-0.84991 20.474897,2.74829 27.548417,-4.84459 7.60172,-11.5951 -4.51409,-23.23671 -16.41434,-20.28871 -3.71136,0 -7.42272,0 -11.134077,0 z m 0,-28.21178 c 0,6.89213 0,13.78426 0,20.67639 8.455137,-0.73241 18.475467,2.3061 25.314217,-3.98021 7.58391,-11.83914 -6.71377,-18.90042 -16.83,-16.69618 -2.828075,0 -5.656146,0 -8.484217,0 z m -9.281401,-7.62729 c 12.29478,0.63485 25.103358,-1.76299 36.890118,2.48117 15.46795,5.23133 7.0875,29.37627 -0.99576,29.54856 16.42416,3.52754 17.1212,29.96087 1.08551,34.61357 -11.99704,3.37881 -24.653109,1.43763 -36.979868,1.95636 0,-22.86655 0,-45.73311 0,-68.59966 z m 103.628218,36.43639 c 10.44196,5.68988 13.14669,18.52401 18.90058,28.17175 5.1321,6.08889 -3.86462,3.46481 -7.75206,3.99152 -5.39181,-8.52472 -8.12712,-19.47523 -15.60543,-26.74146 -5.09757,-2.76403 -14.19811,-3.02129 -18.79254,-1.50085 0,9.41411 0,18.82821 0,28.24231 -4.08841,-0.50656 -11.43945,2.24951 -9.2814,-4.50351 0,-21.36539 0,-42.73077 0,-64.09615 12.33008,0.746 25.62881,-2.28961 36.96335,3.76411 11.14102,7.40496 9.83411,29.48649 -4.4325,32.67228 z m -23.24945,-28.8091 c 0,8.1174 0,16.23479 0,24.35219 8.36971,-0.58245 20.06343,2.61922 24.36368,-6.92659 5.38708,-12.7835 -8.0994,-19.45511 -18.69769,-17.4256 -1.88866,0 -3.77733,0 -5.66599,0 z m 62.73493,-7.62729 c 14.45815,0 28.91631,0 43.37446,0 0.63604,5.24129 0.51982,9.73032 -6.00468,7.81108 -9.36279,0 -18.72559,0 -28.08838,0 0,6.7696 0,13.5392 0,20.30881 10.88956,0 21.77912,0 32.66869,0 0.63604,5.24129 0.51981,9.73032 -6.00468,7.81108 -8.88801,0 -17.77601,0 -26.66401,0 0,8.28587 0,16.57174 0,24.85761 11.64004,0 23.28008,0 34.92012,0 0.63604,5.2413 0.51981,9.73032 -6.00468,7.81108 -12.73228,0 -25.46456,0 -38.19684,0 0,-22.86655 0,-45.73311 0,-68.59966 z m 66.13502,0 c 14.45816,0 28.91631,0 43.37447,0 0.63604,5.24129 0.51981,9.73032 -6.00468,7.81108 -9.3628,0 -18.72559,0 -28.08839,0 0,6.7696 0,13.5392 0,20.30881 10.88957,0 21.77913,0 32.66869,0 0.63605,5.24129 0.51982,9.73032 -6.00468,7.81108 -8.888,0 -17.77601,0 -26.66401,0 0,8.28587 0,16.57174 0,24.85761 11.64004,0 23.28008,0 34.92012,0 0.63604,5.2413 0.51982,9.73032 -6.00468,7.81108 -12.73228,0 -25.46456,0 -38.19684,0 0,-22.86655 0,-45.73311 0,-68.59966 z m 75.41644,7.62729 c 0,17.78169 0,35.56339 0,53.34508 12.81624,-5.7e-4 29.72623,1.66423 36.01138,-12.30389 5.1121,-13.43182 3.94338,-34.76531 -12.50922,-39.43303 -7.62535,-2.32704 -15.65858,-1.4227 -23.50216,-1.60816 z m -9.2814,-7.62729 c 16.70884,0.59985 36.09349,-3.00752 49.46628,9.38694 10.51645,11.96989 10.38748,30.95421 3.76752,44.77856 -8.94572,15.15755 -28.42322,14.6444 -43.92318,14.43416 -4.09445,-0.51026 -11.46312,2.25369 -9.31062,-4.50351 0,-21.36539 0,-42.73077 0,-64.09615 z"
           style="font-style:normal;font-weight:normal;font-size:94.10054016px;line-height:89.99999762%;font-family:sans-serif;letter-spacing:6.58703804px;word-spacing:0px;fill:#000000;fill-opacity:1;stroke:#000000;stroke-width:1px;stroke-linecap:butt;stroke-linejoin:miter;stroke-opacity:1" />
        <path
           id="path3979"
           d="m 340.86391,237.3963 c -1.9514,-2.44849 0.0128,-7.48465 -0.58982,-10.89017 -0.14401,-4.44795 0.53087,-8.88302 0.38527,-13.30195 -1.74814,1.06171 -3.09775,2.63476 -4.14687,4.20464 -0.35959,0.56561 -1.38708,2.42492 -1.58398,0.65368 -0.62468,-0.1049 -1.80918,1.23156 -2.41371,1.76978 -0.66404,1.09492 -2.07041,0.34398 -2.99481,1.98485 -0.66699,0.0852 -1.02449,-0.63496 -1.4493,0.14913 -0.97398,0.20616 -2.28151,1.59054 -3.26393,1.17215 -2.59589,0.86943 -5.07224,2.21789 -6.50717,4.63585 -1.4006,1.10169 -0.455,-1.56292 0.14769,-2.03064 0.41616,-0.75892 1.37277,-1.97838 1.8381,-2.41156 1.78549,-1.37177 2.05409,-2.61152 3.87598,-3.48727 0.95522,-0.66932 1.93314,-1.82183 3.51336,-2.30134 1.29923,-1.26004 3.32338,-2.13895 5.20639,-2.74731 1.30132,-0.83765 3.17608,-0.78338 4.54418,-1.74114 -1.67348,-0.11325 -5.1016,0.40474 -6.91189,0.80731 -1.26455,0.15875 -3.21319,-0.0249 -4.82794,0.4255 -1.55152,0.0759 -2.6169,-0.4381 -4.10039,-0.39384 -0.0539,-0.75917 -3.71457,0.80247 -3.09589,-0.89796 -2.93118,0.6576 -2.3498,-1.66617 -5.10669,-1.35428 -0.25998,-0.73957 -2.27701,-0.24404 -2.02284,-1.40377 -2.44596,0.26824 -2.22796,-1.63192 -4.43879,-1.85857 -1.80724,-1.56428 -4.57201,-1.96742 -6.83901,-2.76184 1.3211,-1.53144 5.18562,0.4619 6.93428,0.0104 2.26533,-0.16564 3.78927,-0.2117 6.17289,-0.0822 0.50006,-0.84104 2.72831,0.43315 3.41709,-0.34352 1.8698,0.33581 3.75536,0.3928 5.53707,1.02119 1.5023,-0.63198 2.60398,0.98121 4.20382,0.50848 1.59745,0.98673 3.47289,1.53317 5.18154,2.2692 0.43963,-0.0769 0.79007,0.75888 1.88781,1.06152 1.54169,0.75715 5.59952,2.50307 6.17629,1.21925 -0.83043,-0.54598 -1.18417,-1.37587 -2.3634,-2.07318 -1.19029,-0.95289 -2.6911,-1.46969 -3.67998,-2.10763 -1.67834,-0.34602 -2.05592,-1.27401 -3.76617,-1.71049 -1.15063,-0.0311 -0.38127,-1.2951 -1.15417,-0.9779 -1.688,-0.60247 -2.16471,-1.63134 -3.9161,-2.08445 -1.23314,-0.54756 -0.36227,-1.5548 -1.94069,-1.87669 -1.55648,-0.13545 -1.39963,-1.46725 -2.20642,-2.02336 -1.5875,-0.17506 -1.49987,-1.49569 -2.18985,-2.20021 -2.06283,-0.86888 -0.39724,-2.23484 -2.16645,-2.87789 -1.91381,-0.87412 0.7169,-2.01585 -1.94306,-3.0452 0.83444,-1.2048 -2.54861,-2.16133 -0.74582,-2.91894 -1.67131,-0.55215 -1.62501,-2.70557 -2.41742,-3.22479 -0.69084,-0.87063 -1.44709,-1.66661 -1.06207,-2.40294 -0.8905,-0.85279 -1.06608,-1.26119 -1.82485,-2.27634 0.52575,-0.5849 -0.24887,-1.52998 -0.3935,-1.7465 -1.01058,-0.59586 -0.92008,-1.73938 -1.97447,-2.46092 -0.61843,-0.99321 -1.68307,-1.42183 -2.42696,-2.31153 -0.41881,-0.19419 -3.08591,-2.83478 -0.98981,-1.98922 2.04026,1.15689 4.11531,2.55846 5.99386,3.69823 1.10879,-0.75466 1.62707,1.29805 2.62136,1.30032 0.185,-0.11705 1.47689,0.44523 2.29012,1.14244 0.079,1.1271 1.42046,-0.1132 1.51508,0.75002 0.57662,0.64927 0.58795,0.50036 1.15822,0.87831 -0.0161,1.52117 1.18788,-0.74646 1.9434,1.1627 0.79626,2.07827 0.9805,0.48924 2.15745,1.28001 0.88042,1.79841 2.50301,1.8012 3.08582,3.08644 0.51325,1.17352 1.86718,0.59077 2.1663,2.26792 0.2207,1.4648 1.59368,0.0475 1.95955,1.94487 0.25251,1.12517 1.18666,0.16555 1.35155,1.33347 0.23967,1.7718 1.80702,1.48397 2.20039,3.06859 0.36137,2.27133 1.50334,0.90925 1.93914,3.0684 0.39752,1.60775 1.51019,1.55501 1.40704,3.68203 1.05741,0.74454 0.57287,3.17856 1.96504,3.37915 0.68307,1.25371 0.97115,2.95303 1.77744,4.47481 0.84954,1.40137 1.65025,2.91796 2.79093,4.00725 0.63594,-1.77009 0.0551,-5.50026 -1.55604,-6.96432 -0.43689,-0.55297 -0.34598,-1.09211 -0.53706,-1.7413 -1.39148,-1.35414 -1.15796,-2.24684 -1.36902,-3.03174 -0.59489,-0.89198 -1.54137,-2.00412 -1.08823,-2.91067 -1.33395,-1.31421 -0.74757,-2.61287 -0.77072,-2.62335 -0.32275,-0.62524 -1.31843,-1.63849 -1.1889,-2.73502 1.22495,-0.65011 -1.58658,-3.50841 0.21233,-3.96245 -0.34229,-2.11452 -0.34969,-4.00821 0.26711,-5.31935 0.0434,-1.00162 -1.0942,-3.69406 0.53854,-2.69858 -0.3153,-1.72381 -1.37021,-3.78004 0.095,-4.05114 0.0363,-1.11724 -0.73105,-3.69831 0.86418,-2.5902 -0.75327,-2.20064 -0.18738,-4.5785 0.42404,-5.98278 -0.098,-2.19196 0.58165,-3.56964 0.82015,-5.83912 1.26679,-0.014 0.26714,-3.25041 1.16494,-4.02397 0.22637,-2.53914 0.86457,-5.17975 0.59971,-8.09718 0.919,-4.69168 0.92365,2.73769 1.71512,4.3749 0.72978,2.48362 1.73647,4.52879 2.67343,6.09099 0.67248,1.52614 0.13512,2.88396 1.2816,3.60398 -0.0269,1.70278 0.81331,3.76375 1.0525,5.0524 0.482,1.58452 0.50649,2.72171 1.00332,4.17077 -0.97759,1.85436 1.07951,2.44272 0.14555,4.32424 0.88649,0.89564 0.2918,2.73302 0.55002,3.88315 0.45482,1.33544 -0.35707,2.6909 0.12372,3.92943 -0.73272,1.82968 1.24008,2.47454 -0.13108,4.21472 0.85851,1.97745 -0.88957,5.03951 -0.0345,6.55271 -0.10362,1.46703 -0.84349,2.31892 -1.33694,3.39339 0.63179,0.46244 -0.51039,2.08349 -0.84247,2.66704 -0.23259,1.91211 -1.3864,3.22867 -2.15568,5.26207 -0.9094,1.06532 -2.19621,6.71313 -0.18183,3.72701 1.20784,-1.59462 1.84492,-3.53738 2.7898,-5.24673 1.03237,-1.82542 0.95832,-4.50851 2.40458,-5.66686 0.28995,-2.13621 1.52471,-2.75513 1.88117,-4.45173 1.30994,-0.73366 1.17988,-3.61428 2.59376,-3.54827 0.76171,-1.06297 0.91287,-2.93018 2.10406,-3.11935 0.3696,-1.72924 1.55464,-2.84147 2.11091,-2.36908 0.61339,-0.67696 1.09554,-3.28078 1.89308,-2.33211 1.08941,0.37587 0.9176,-2.55581 2.29666,-2.41787 0.72088,1.56464 0.47514,-1.09633 1.13793,-0.74572 0.46652,-1.73444 1.74733,-0.87368 2.16513,-1.61715 0.88255,-2.03806 2.29425,-0.61906 3.12324,-2.77141 0.2042,-0.81703 1.27981,0.16504 1.79011,-1.01949 0.82716,-0.64828 1.4211,-2.10847 2.44903,-1.90724 1.23078,-1.67639 2.48783,-1.77221 3.57764,-3.14499 1.77137,-1.66571 3.33177,-3.84492 4.94506,-5.72243 0.93392,0.74587 -0.99454,2.6228 -1.3414,3.81733 -0.32574,0.57415 -0.95879,1.8989 -1.37125,2.51217 -0.34305,0.76479 -0.78262,1.47145 -0.95193,2.04264 -0.74148,1.73905 -0.57513,2.47291 -1.27448,3.96866 -0.85792,1.03149 0.306,2.28743 -1.41926,3.49761 -0.62619,0.28113 0.66752,1.32449 -0.6459,1.89416 -0.01,0.66431 -1.85999,1.25577 -0.50378,1.35737 0.10692,1.22298 -2.42116,2.09207 -1.02867,2.79 0.0902,1.00407 -1.26991,1.37623 -1.64515,1.84332 -0.0508,0.97095 -0.0653,2.18173 -1.57578,3.0479 -0.44631,0.43048 1.55416,0.61667 -0.30345,1.64488 -0.30962,0.22629 -1.78176,1.02984 -1.19146,1.51419 0.9449,1.41461 -3.66811,1.79888 -1.87996,3.06437 -0.92677,0.99151 -2.77889,1.27479 -2.44269,2.5977 -2.46512,0.19803 -1.61233,1.55257 -3.09889,2.21931 -0.58747,0.37273 -2.68515,0.83526 -1.82213,1.26594 0.0636,1.12749 -3.32072,0.5714 -3.29312,1.9458 -2.46368,0.25197 -2.99631,1.87806 -5.11284,2.33237 -2.17293,0.7629 -4.46148,2.23342 -5.93369,3.96011 -0.78113,0.79626 2.54287,-0.0979 3.82509,-0.52388 0.85202,-0.94487 2.87418,-1.17655 3.49787,-1.75908 0.87505,-0.0844 1.18564,-1.27516 1.75244,-1.09994 1.14712,0.59097 2.39483,-1.58475 2.39248,-1.18938 2.21282,-0.81844 4.46518,-1.74108 6.61929,-2.83046 2.25073,-0.46521 4.12181,-0.96504 6.52809,-1.58849 1.30225,0.40987 2.91166,-0.84433 4.21318,-0.21939 2.80081,-0.54905 5.0931,-0.044 8.00226,-0.57583 1.06884,-0.50435 5.55002,-0.52299 2.81219,0.48297 -1.85717,0.81683 -4.04851,1.41659 -5.63334,2.39394 -0.18483,1.01974 -2.59097,0.78716 -2.49262,1.86936 -1.26624,1.30788 -3.11702,1.36806 -3.8021,2.59044 -2.27125,0.46901 -1.23875,2.87146 -4.69287,2.20165 1.43127,1.82052 -2.7905,1.13588 -3.62994,2.00236 -2.97781,-0.41736 -1.86451,1.32126 -5.47756,0.58737 -0.0556,1.6026 -3.40734,-0.59269 -4.05519,0.53021 -2.21169,-0.67146 -4.39404,-0.54862 -6.72381,-1.1924 -2.28247,-0.55517 -3.6883,0.45774 -0.53284,0.52558 1.74278,0.34499 3.08956,1.2002 4.78079,1.14062 1.17476,0.5196 2.34929,0.87206 3.87758,1.13512 -0.18618,1.10495 1.52888,0.98969 2.70972,1.25645 0.45018,1.17789 2.12607,1.54561 3.63398,2.23614 0.29209,0.8067 1.58814,1.74766 2.52949,2.34483 0.95262,0.55438 1.49443,1.41214 2.59291,1.84353 0.43824,0.82534 1.34363,1.20521 1.95037,2.05187 2.27777,2.15497 -0.50228,1.49885 -1.46336,0.27765 -2.08241,-1.30721 -4.3385,-2.30493 -6.76103,-2.6235 -0.68583,-0.14684 -2.39146,-1.42746 -2.07767,-0.24922 -1.43421,-0.99014 -2.98079,-0.27847 -4.33767,-1.6292 -1.01311,-0.50704 -1.91435,-0.0924 -3.09147,-1.31838 -0.52205,-0.14432 -0.74594,-1.0158 -1.25476,-0.69384 -0.8675,0.9308 -2.19918,-2.25456 -3.51836,-1.79754 -0.55369,-1.00913 -1.24006,-1.1931 -1.90337,-2.13335 -0.63804,-0.41933 -1.41728,-2.70084 -1.76231,-1.09258 -0.55119,7.59853 -0.36726,15.22894 -0.58201,22.8363 0.2163,0.23816 -0.79638,0.51642 -0.5808,0.19666 z m 27.32619,-10.33879 c -0.0581,-0.20583 0.6027,0.0939 0,0 z m -0.27576,-0.24916 c 0.11983,-0.16825 0.11983,0.16825 0,0 z m -0.52607,-0.11563 c 0.22024,-0.28823 0.19579,-0.11792 0,0 z m -49.55602,1.47023 c 0.11207,-0.24098 0.0645,0.14241 0,0 z m 0.83709,-0.78943 c 0.1556,-0.12622 0.042,0.15777 0,0 z m 46.39888,-2.29624 c 0.13249,-0.322 0.40961,0.10182 0,0 z m -45.83869,1.45991 c 0.10794,-0.0673 0.41155,-0.10247 0,0 z m 45.04863,-1.94048 c 0.0425,-0.18361 0.10882,0.13393 0,0 z m -44.63038,1.55993 c 0.12049,-0.16819 0.11917,0.16808 0,0 z m -1.42853,-0.13126 c 0.0724,-0.39364 0.0706,0.21979 0,0 z m 2.03069,-0.35288 c 0.62298,-0.59147 0.0228,0.11902 0,0 z m 42.04679,-1.94342 c 0.0777,-0.21164 0.10965,0.21296 0,0 z m 3.0528,-0.99471 c 0.0414,-0.52175 0.14975,0.18199 0,0 z m -0.49626,-0.19504 c 0.007,-0.26487 0.24751,0.0933 0,0 z m -42.15045,1.57934 c 0.0827,-0.11563 0.14331,0.20995 0,0 z m -3.46348,0.0832 c 0.23134,-0.0732 0.10104,0.14327 0,0 z m 0.31516,-0.1621 c 10e-4,-0.24989 0.14116,0.17399 0,0 z m 35.71737,-1.6146 c 0.26043,-0.24351 -0.009,0.22602 0,0 z m 0.13133,-0.13133 c 0.002,-0.25142 0.14133,0.17265 0,0 z m -30.50171,1.03682 c 0.15508,-0.16652 0.10202,0.14498 0,0 z m 29.39439,-1.28914 c 0.13402,-0.20265 0.005,0.23885 0,0 z m 9.04167,-0.68653 c 0.0812,-0.11633 0.14443,0.21033 0,0 z m -42.92305,1.70536 c 0.16343,-0.54797 0.19893,0.0751 0,0 z m 33.38882,-1.47128 c 0.24617,-0.072 0.0868,0.14387 0,0 z m 9.2778,-0.51533 c 0.21458,-0.24906 0.22475,-0.12307 0,0 z m -10.59357,0.21088 c 0.12026,-0.16864 0.11906,0.16789 0,0 z m 9.94375,-0.61512 c 0.14111,-0.17267 0.48199,0.11873 0,0 z m -41.16073,1.56407 c 0.007,-0.26476 0.24727,0.0931 0,0 z m 8.41465,-0.47245 c 0.13337,-0.19834 0.0614,0.20209 0,0 z m 31.58864,-2.34647 c 0.22,-0.28792 0.19595,-0.11808 0,0 z m -11.85781,-0.16934 c 0.12023,-0.16815 0.11993,0.168 0,0 z m -26.11143,0.98784 c 0.2696,-0.0751 0.0754,0.14343 0,0 z m 24.77192,-1.07439 c -0.0764,-0.47545 0.37538,0.20516 0,0 z m 11.89306,-0.47805 c 0.002,-0.25016 0.14001,0.17428 0,0 z m -27.01881,0.77051 c 0.24151,-0.39966 -0.12098,0.39101 0,0 z m 14.90387,-0.72698 c -1.51892,-1.13601 0.56963,0.23867 0,0 z m -12.39577,0.23016 c 0.2321,-0.0743 0.0995,0.14561 0,0 z m -10.46601,0.24354 c 5.1e-4,-0.2491 0.14018,0.17488 0,0 z m 22.25338,-1.06359 c -0.31951,-0.12419 0.26936,0.0706 0,0 z m -0.30052,-0.0609 c 0.21087,-0.27615 0.20561,-0.12697 0,0 z m -0.1462,-0.19386 c -0.0741,-0.27252 0.17804,0.2072 0,0 z m -0.44146,-0.36717 c 0.23533,-0.0738 0.0962,0.14477 0,0 z m -18.7826,-0.12635 c 0.11207,-0.24098 0.0645,0.14241 0,0 z m 9.36764,-0.43503 c 0.002,-0.25021 0.14001,0.17444 0,0 z m 7.61507,-0.57076 c 0.13102,-0.20276 0.007,0.24925 0,0 z m -7.53286,0.26962 c 0.48112,-0.29455 0.3314,0.048 0,0 z m 7.24361,-0.69117 c 0.13099,-0.20283 0.005,0.24879 0,0 z m -0.16497,-0.0472 c 0.13303,-0.20094 0.009,0.23954 0,0 z m -15.32474,0.46579 c -10e-4,-0.29003 0.22699,0.21318 0,0 z m 9.03462,-0.66518 c 0.44194,-0.38769 -0.26323,0.42588 0,0 z m 0.18362,-0.14717 c 0.10437,-0.29453 0.22177,-0.0313 0,0 z m 1.38858,-1.10684 c 0.003,-0.25123 0.14065,0.17217 0,0 z m 3.35289,-0.20204 c -0.38288,-0.28212 0.32141,0.15308 0,0 z m 8.93768,-0.38183 c 0.0812,-0.1163 0.14472,0.21028 0,0 z m -12.40734,0.30255 c 0.1556,-0.12622 0.042,0.15777 0,0 z m 0.41468,-0.18425 c 0.26137,-0.24917 0.20999,0.0858 0,0 z m 2.55423,-0.092 c 0.001,-0.2494 0.1396,0.17516 0,0 z m 0.17857,-0.22201 c -0.27424,-0.0371 0.22155,-0.11058 0,0 z m -15.43889,0.59942 c -0.11431,-0.15063 0.24257,0.0652 0,0 z m 40.14745,-1.89822 c 0.0722,-0.39351 0.0703,0.22009 0,0 z m -48.86772,0.99933 c 0.21933,-0.22098 0.4427,-0.0193 0,0 z m 51.6167,-2.88433 c -0.41356,-0.13448 0.32696,-0.1798 0,0 z m -27.28584,0.28974 c 0.0142,-0.30283 0.31965,0.0712 0,0 z m 1.56849,-0.0992 c 0.14434,-0.37516 0.0549,0.24347 0,0 z m 25.46455,-1.04642 c 0.003,-0.25123 0.14065,0.17216 0,0 z m -21.97115,0.80491 c 0.0189,-0.14833 0.32091,0.037 0,0 z m -3.33992,0.0137 c 0.22069,-0.16314 0.15898,0.0829 0,0 z m 0.3343,-0.239 c 0.2378,-0.58795 0.46781,0.12569 0,0 z m -4.69234,0.12008 c 0.23782,-0.25307 -0.1,0.26122 0,0 z m -28.29987,0.9455 c -0.15342,-0.48502 0.20367,0.13134 0,0 z m 34.29424,-1.99319 c 0.0832,-0.11507 0.14296,0.20877 0,0 z m -34.66268,1.29605 c -0.0849,-0.32278 0.21351,0.12542 0,0 z m 32.55685,-1.77187 c -0.12865,-0.36911 0.34958,0.0938 0,0 z m -7.58281,-0.12558 c 0.0396,-0.29387 0.14019,0.16661 0,0 z m -27.29234,1.15281 c 0.003,-0.25185 0.14086,0.17412 0,0 z m 26.88017,-1.36566 c 0.004,-0.23774 0.16209,0.0484 0,0 z m 39.09416,-1.76542 c 10e-4,-0.31624 0.34993,0.22141 0,0 z m -44.49812,1.85984 c 0.13543,-0.20042 0.005,0.23905 0,0 z m 8.01762,-0.42612 c 0.083,-0.20273 0.10105,0.20755 0,0 z m -29.40973,1.04811 c 0.12017,-0.16848 0.1192,0.16811 0,0 z m 33.97171,-1.85809 c 0.0107,-0.2687 0.17813,0.26249 0,0 z M 374.96885,205.94 c 0.0496,-0.26814 0.21285,0.0923 0,0 z m -19.90794,0.68781 c 0.14855,-0.24276 0.35946,-0.0157 0,0 z m -48.32843,1.78756 c 0.0824,-0.11598 0.14377,0.2109 0,0 z m 70.87103,-3.72939 c 0.003,-0.25154 0.14054,0.17328 0,0 z m -46.16311,1.69309 c -0.0725,-0.27061 0.17307,0.21121 0,0 z m -7.70181,-0.27109 c 0.20932,-0.16471 0.0238,0.0966 0,0 z m -0.90297,-0.305 c 0.12913,-0.20181 0.011,0.24515 0,0 z m 21.34046,-1.20614 c 0.21464,-0.6324 0.0924,0.23619 0,0 z m 0.3083,-0.46304 c 0.24811,-0.0765 0.0916,0.1444 0,0 z m 13.45782,-1.15808 c 0.002,-0.28805 0.22505,0.20669 0,0 z m -21.2724,0.60644 c 0.0364,-0.30711 0.18229,-0.0749 0,0 z m 21.23049,-0.90107 c 0.0207,-0.14849 0.31986,0.0377 0,0 z m -12.5325,0.048 c 0.21531,-0.28114 0.20152,-0.12215 0,0 z m -9.40254,-0.0479 c -0.0287,-0.30656 0.21724,0.14787 0,0 z m 2.25446,-0.37704 c 0.19544,-0.17332 0.27415,0.0447 0,0 z m -0.46592,-0.39304 c 0.13434,-0.20271 0.005,0.23849 0,0 z m 0.12405,-0.0708 c -0.11529,-0.29246 0.17628,-0.009 0,0 z m 22.66505,-1.22788 c 0.0433,-0.18481 0.10964,0.13282 0,0 z m -23.23785,0.81263 c 0.21812,-0.1655 0.16223,0.0867 0,0 z m 25.64377,-1.91779 c 0.002,-0.2499 0.1402,0.17355 0,0 z m -16.65675,0.30304 c 0.13708,-0.20083 -5.1e-4,0.24075 0,0 z m -9.10519,-0.0166 c 2.9e-4,-0.2513 0.14381,0.17197 0,0 z m 25.69921,-1.06787 c 0.21949,-0.28747 0.19616,-0.11836 0,0 z m -41.62721,1.23747 c 0.0931,-0.39755 -0.007,0.31219 0,0 z m 43.45394,-2.42546 c 0.12079,-0.16793 0.11977,0.16857 0,0 z m 0.49942,-1.51592 c 0.208,-0.24319 0.23134,-0.12976 0,0 z m -17.64708,0.27003 c 0.1122,-0.24103 0.0643,0.1424 0,0 z m -0.11138,-0.0497 c 0.11207,-0.24098 0.0645,0.14241 0,0 z m 19.61183,-1.27714 c 0.0192,-0.14841 0.3208,0.0373 0,0 z m 0.0798,-0.22483 c -0.0234,-0.34199 0.15661,0.27199 0,0 z m -31.80988,1.21778 c -0.0726,-0.2706 0.17317,0.21113 0,0 z m -16.72635,0.57097 c 0.0613,-0.30526 0.36676,0.11703 0,0 z m -0.56474,-0.3598 c 0.18289,-0.17318 0.19939,0.1527 0,0 z m 48.94118,-2.52017 c 0.0612,-0.13631 0.12627,0.23713 0,0 z m 0.13198,-0.0114 c 0.10924,-0.28678 0.23313,-0.0631 0,0 z m -16.57812,0.1846 c 0.13128,-0.20309 0.005,0.24534 0,0 z m -18.16593,0.39387 c -0.10954,-0.42314 0.14422,-0.14179 0,0 z m -0.75935,-0.26976 c -0.0729,-0.27059 0.17279,0.21105 0,0 z m -14.15104,0.42057 c 0.12863,-0.20173 0.0139,0.24354 0,0 z m 51.38116,-2.22432 c 0.12899,-0.19676 0.065,0.19963 0,0 z m -53.0038,1.0889 c -0.19224,-0.3393 0.16924,-0.003 0,0 z m -0.20452,-0.0742 c 0.15563,-0.13437 0.0397,0.16724 0,0 z m 14.85811,-1.48383 c 0.11976,-0.16825 0.11996,0.16809 0,0 z m 38.99008,-1.8472 c 0.23286,-0.0743 0.0993,0.14561 0,0 z m -53.91224,2.12922 c 0.0723,-0.39359 0.0704,0.21996 0,0 z m 13.98247,-0.81184 c 0.0962,-0.25777 0.121,0.24718 0,0 z m 40.93239,-1.88927 c -0.0687,-0.19412 0.16937,0.0228 0,0 z m -0.11039,-0.1258 c 0.11237,-0.24115 0.0641,0.14256 0,0 z m -16.94801,0.62473 c 0.20932,-0.16471 0.0238,0.0965 0,0 z m -38.68003,1.29257 c -0.18386,-0.26317 0.32119,0.33314 0,0 z m -0.31305,-0.29346 c 0.12378,-0.22443 0.33951,0.16246 0,0 z m 56.39579,-3.38828 c 0.13419,-0.20273 0.003,0.23902 0,0 z m -15.87655,0.51611 c 0.0426,-0.18362 0.10869,0.13355 0,0 z m 16.52589,-0.94088 c 0.18247,-0.17267 0.2034,0.14864 0,0 z m 0.12075,-0.17823 c 0.5656,-0.7213 -0.11931,0.11382 0,0 z m 0.36956,-0.8848 c 0.08,-0.11779 0.14846,0.20689 0,0 z m -59.05326,2.25053 c 0.0833,-0.2031 0.0985,0.20631 0,0 z m 14.03539,-0.66363 c 0.25432,-0.076 0.088,0.14432 0,0 z m 44.6523,-1.97391 c -0.0361,-0.43796 0.19448,0.35867 0,0 z m -0.25917,-0.0454 c 0.13019,-0.20167 0.005,0.24643 0,0 z m -44.96381,1.61221 c 0.15797,-0.22726 0.17694,0.1128 0,0 z m -13.56611,0.51212 c 0.2125,-0.27795 0.20392,-0.12519 0,0 z m -0.79974,-1.57305 c 0.13016,-0.19712 0.0652,0.19797 0,0 z m 0.15209,-0.0316 c 0.13048,-0.20231 0.009,0.24744 0,0 z m -0.39787,-0.30676 c -0.28189,-0.42246 0.61054,0.29513 0,0 z m 12.95574,-0.5887 c -0.0727,-0.27057 0.1732,0.21107 0,0 z m -0.74212,-0.11403 c -0.21473,-0.23462 0.38891,0.27135 0,0 z m 0.46102,-0.0711 c 0.0365,-0.29454 0.14473,0.16625 0,0 z m 33.42161,-1.39375 c 0.0873,-0.28333 0.18864,0.0757 0,0 z m 1.25071,-0.046 c 0.21764,-0.36111 0.031,0.20039 0,0 z m -25.16185,1.05057 c 0.21939,-0.2873 0.19652,-0.11872 0,0 z m 24.28231,-1.40644 c 0.23541,-0.0737 0.097,0.14518 0,0 z m -46.8828,1.60793 c 0.12768,-0.20345 0.01,0.24411 0,0 z m 36.11011,-1.84699 c -0.018,-0.33574 0.15328,0.28142 0,0 z m 14.16447,-1.59393 c 0.1125,-0.24119 0.0639,0.14255 0,0 z m -51.12885,2.15439 c 0.11983,-0.16825 0.11983,0.16825 0,0 z m 11.25516,-0.54757 c -0.0727,-0.27057 0.1732,0.21106 0,0 z m 0.51735,-0.0443 c -0.0687,-0.18304 0.50265,0.0947 0,0 z m 37.99503,-1.64817 c -0.0687,-0.19166 0.16619,0.0244 0,0 z m 0.96807,-0.30548 c -0.10776,-0.26546 0.19019,-0.0364 0,0 z m -40.3005,1.16795 c -0.14302,-0.38216 0.27009,0.38084 0,0 z m 41.47952,-1.98871 c -0.11766,-0.15006 0.24085,0.0643 0,0 z m -41.79561,1.51746 c -0.0694,-0.19109 0.16715,0.0233 0,0 z m 41.99199,-1.83802 c -0.21129,-0.2325 0.38778,0.26689 0,0 z m 11.89299,-0.62628 c -0.0693,-0.19199 0.16854,0.0225 0,0 z m 0.16743,-0.0609 c 0.0793,-0.49929 0.29598,-0.30985 0,0 z m -55.60526,1.68483 c 0.29661,-0.18613 0.13322,0.26683 0,0 z m 44.84757,-1.92571 c 0.12002,-0.16824 0.11954,0.16839 0,0 z m -54.72016,2.16119 c 0.1561,-0.13132 0.27896,0.14176 0,0 z m 9.02956,-0.81544 c 0.0554,-0.20053 0.15514,0.174 0,0 z m 16.86453,-0.78822 c -0.15951,-0.51664 0.15462,0.105 0,0 z m -0.89399,-0.14957 c 0.0612,-0.13625 0.12622,0.23688 0,0 z m 30.80713,-1.35219 c 0.0722,-0.39351 0.0703,0.22009 0,0 z m 9.8759,-0.46628 c 0.0397,-0.26082 0.32205,0.13012 0,0 z m -9.52408,-0.3418 c 0.12928,-0.19646 0.0647,0.19977 0,0 z m 1.34337,-0.37832 c 0.007,-0.26476 0.24727,0.0931 0,0 z m 9.63594,-1.54276 c -0.21309,-0.22164 0.24463,-0.014 0,0 z m -7.79588,0.16191 c 0.007,-0.26458 0.24799,0.0929 0,0 z m -0.57097,-0.0567 c -0.0517,-0.40688 0.23263,0.28495 0,0 z m -60.37441,2.38757 c -0.0694,-0.1918 0.1686,0.0221 0,0 z m 68.33644,-3.05582 c 0.13256,-0.20096 0.003,0.24897 0,0 z m -6.17209,-0.0644 c 0.2351,-0.30925 -0.0627,0.29398 0,0 z m -63.02758,1.96333 c -0.0693,-0.19126 0.16735,0.0237 0,0 z m 5.11354,-0.48673 c -0.027,-0.25884 0.21718,0.17689 0,0 z m -0.17695,-0.12931 c 0.021,-0.14848 0.31944,0.0377 0,0 z m 59.833,-2.79215 c -0.21257,-0.2333 0.38815,0.26698 0,0 z m 1.07677,-0.78312 c 0.17275,-0.2603 0.0317,0.26419 0,0 z m -66.95256,2.69039 c 0.13595,-0.20155 0.002,0.23804 0,0 z m 67.14243,-2.87898 c 0.21074,-0.3889 0.49443,-0.45789 0,0 z m -67.45004,2.76522 c 0.31295,-0.14865 0.0605,0.25131 0,0 z m -0.14436,-0.30064 c 0.13022,-0.20292 0.006,0.24498 0,0 z m -0.31258,-0.0958 c -0.0227,-0.34112 0.16082,0.27009 0,0 z m 2.82026,-0.47481 c -0.1188,-0.14844 0.23848,0.0675 0,0 z m 65.63064,-2.80085 c -0.0962,-0.35778 0.36784,-0.14846 0,0 z m -65.83152,2.73117 c 0.13612,-0.20051 6.1e-4,0.23963 0,0 z m -3.41673,-0.15572 c -0.33679,-0.12014 0.308,0.0569 0,0 z m -0.39858,-0.47006 c 0.0832,-0.11503 0.14324,0.2087 0,0 z m -0.53761,-0.34389 c -0.1839,-0.26319 0.32121,0.33312 0,0 z m 43.96283,-1.95555 c 0.24817,-0.0722 0.0867,0.14418 0,0 z m -42.04448,1.5391 c 0.007,-0.26476 0.24727,0.0931 0,0 z m -2.55344,-0.47881 c -0.20407,-0.2443 0.36619,0.29266 0,0 z m -0.18607,-0.15244 c 0.0612,-0.13625 0.12622,0.23688 0,0 z m -0.55002,-0.10021 c 0.009,-0.19803 0.34058,0.009 0,0 z m 1.9484,-0.23766 c 0.12021,-0.1685 0.11938,0.16828 0,0 z m 75.56919,-3.99654 c 0.0833,-0.2031 0.0985,0.20629 0,0 z m 0.20191,-0.39213 c -0.14792,-0.22548 0.33167,0.10391 0,0 z m -1.66203,-0.21803 c 0.0207,-0.14843 0.3195,0.0375 0,0 z m 2.0976,-0.27178 c -0.20616,-0.2451 0.36967,0.2912 0,0 z m -33.4516,1.33629 c 0.13401,-0.20121 0.008,0.24048 0,0 z m 31.84661,-1.75855 c 0.0964,-0.53689 0.10824,0.20431 0,0 z m 0.22427,-0.14718 c 0.0953,-0.39689 -0.006,0.31193 0,0 z m -32.4513,1.2011 c -0.18331,-0.26352 0.32342,0.33192 0,0 z m 33.05157,-2.0063 c 0.0612,-0.13631 0.12627,0.23713 0,0 z m -42.42566,1.43238 c 0.0612,-0.13631 0.12627,0.23713 0,0 z m 8.24504,-4.85282 c 0.19979,-0.0827 0.18058,0.23147 0,0 z m -7.53012,-1.01229 c -0.0514,-0.20418 0.35621,0.18663 0,0 z m 4.22467,-6.07924 c 0.004,-0.2377 0.1621,0.0483 0,0 z"
           style="fill:#000000;stroke:#000000;stroke-opacity:1" />
      </g>
      <text
         id="text5457"
         y="370.8161"
         x="114.85143"
         style="font-style:normal;font-weight:normal;font-size:97.07698059px;line-height:89.99999762%;font-family:sans-serif;letter-spacing:6.7953887px;word-spacing:0px;fill:#000000;fill-opacity:1;stroke:none;stroke-width:1px;stroke-linecap:butt;stroke-linejoin:miter;stroke-opacity:1"
         xml:space="preserve"><tspan
           id="tspan5461"
           style="font-style:normal;font-variant:normal;font-weight:normal;font-stretch:normal;font-size:30.97307205px;line-height:89.99999762%;font-family:sans-serif;-inkscape-font-specification:sans-serif;letter-spacing:6.7953887px"
           y="370.8161"
           x="114.85143">technologies</tspan></text>
    </g>
  </g>
</svg>
